<?xml version="1.0" standalone="no"?>
<!DOCTYPE svg PUBLIC "-//W3C//DTD SVG 20010904//EN"
 "http://www.w3.org/TR/2001/REC-SVG-20010904/DTD/svg10.dtd">
<svg version="1.0" xmlns="http://www.w3.org/2000/svg"
 width="512.000000pt" height="512.000000pt" viewBox="0 0 512.000000 512.000000"
 preserveAspectRatio="xMidYMid meet">

<g transform="translate(0.000000,512.000000) scale(0.100000,-0.100000)"
fill="#000000" stroke="none">
<path d="M2370 5113 c-371 -35 -653 -114 -961 -269 -406 -203 -782 -548 -1029
-944 -179 -286 -309 -655 -362 -1025 -17 -118 -17 -512 0 -630 42 -295 120
-553 242 -800 137 -280 272 -468 494 -691 221 -220 412 -357 681 -489 188 -92
309 -137 500 -185 500 -126 1002 -102 1490 71 150 53 408 183 540 271 560 374
952 942 1095 1588 33 150 50 291 57 465 15 426 -73 832 -263 1214 -124 250
-263 447 -458 648 -214 222 -430 379 -711 518 -296 146 -572 225 -900 255
-102 9 -333 11 -415 3z m540 -148 c991 -150 1780 -868 2019 -1836 52 -213 66
-329 66 -579 0 -164 -5 -256 -18 -340 -166 -1090 -987 -1911 -2077 -2077 -160
-24 -520 -24 -680 0 -760 116 -1402 552 -1778 1207 -325 567 -408 1252 -228
1878 150 519 454 961 886 1286 350 263 764 424 1225 476 115 13 461 4 585 -15z"/>
<path d="M2484 4416 l-34 -34 0 -933 0 -934 533 -532 c511 -512 534 -533 569
-533 76 0 118 42 118 117 0 36 -17 54 -500 538 l-500 500 0 889 0 888 -34 34
c-28 28 -42 34 -76 34 -34 0 -48 -6 -76 -34z"/>
</g>
</svg>
