<svg id="svg" xmlns="http://www.w3.org/2000/svg" xmlns:xlink="http://www.w3.org/1999/xlink" width="400" height="400" viewBox="0, 0, 400,400"><g id="svgg"><path id="path0" d="M196.233 33.664 C 90.940 39.204,16.280 139.676,41.408 242.015 C 60.645 320.360,132.825 374.286,213.098 370.286 C 331.129 364.404,406.437 243.381,359.717 134.661 L 357.763 130.114 359.480 126.441 C 366.792 110.792,369.447 99.464,368.322 88.713 C 363.436 42.027,310.958 17.916,272.235 44.566 L 269.817 46.230 267.483 45.272 C 246.809 36.791,219.954 32.415,196.233 33.664 M212.189 43.826 L 217.843 44.085 217.090 44.914 C 214.361 47.916,215.229 52.203,218.804 53.381 C 223.742 55.008,227.699 49.238,224.255 45.433 C 223.586 44.694,223.618 44.682,225.547 44.952 C 236.167 46.442,245.579 48.597,255.050 51.710 C 262.153 54.044,261.839 53.713,259.577 56.486 C 248.806 69.691,243.896 87.959,246.979 103.366 C 251.075 123.836,279.767 174.979,306.436 209.347 L 307.327 210.495 308.218 209.347 C 319.664 194.596,345.508 154.664,350.729 143.663 C 351.717 141.582,351.721 141.588,353.814 147.404 C 387.659 241.437,328.326 342.910,230.535 358.237 C 223.145 359.396,223.482 359.382,224.290 358.489 C 227.702 354.719,223.709 348.963,218.804 350.579 C 215.228 351.758,214.361 356.044,217.091 359.048 L 217.845 359.878 211.497 360.149 C 208.005 360.298,202.292 360.298,198.800 360.149 L 192.452 359.878 193.206 359.048 C 195.936 356.044,195.069 351.758,191.493 350.579 C 186.588 348.963,182.595 354.719,186.007 358.489 C 186.815 359.382,187.152 359.396,179.762 358.237 C 92.828 344.611,33.323 260.375,49.328 173.594 C 61.509 107.550,114.072 56.019,179.762 45.723 C 187.152 44.565,186.815 44.578,186.007 45.471 C 182.595 49.241,186.588 54.998,191.493 53.381 C 195.095 52.194,195.988 47.167,193.032 44.724 C 191.977 43.852,202.245 43.371,212.189 43.826 M317.181 44.598 C 340.306 49.375,356.970 68.472,358.266 91.683 C 359.009 104.975,350.079 126.367,330.479 158.252 C 322.828 170.698,308.096 192.475,307.327 192.475 C 306.558 192.475,291.826 170.698,284.175 158.252 C 264.574 126.367,255.645 104.975,256.387 91.683 C 258.101 60.993,287.251 38.416,317.181 44.598 M202.879 54.449 C 198.763 56.238,199.412 62.511,203.839 63.733 C 206.781 64.545,209.853 62.411,210.166 59.337 C 210.564 55.425,206.660 52.805,202.879 54.449 M167.294 59.394 C 165.733 60.025,164.356 62.111,164.356 63.845 C 164.356 69.735,172.608 71.007,174.295 65.377 C 175.469 61.460,171.201 57.813,167.294 59.394 M238.498 59.586 C 236.612 60.436,235.379 63.297,236.002 65.377 C 237.696 71.032,245.941 69.731,245.941 63.809 C 245.941 60.314,241.930 58.038,238.498 59.586 M151.135 75.282 C 148.082 77.683,148.346 82.036,151.646 83.743 C 155.973 85.981,160.809 81.473,158.622 77.243 C 157.651 75.365,156.162 74.455,154.059 74.455 C 152.759 74.455,151.864 74.709,151.135 75.282 M202.224 75.282 C 199.172 77.683,199.435 82.036,202.735 83.743 C 207.062 85.981,211.899 81.473,209.711 77.243 C 208.740 75.365,207.251 74.455,205.149 74.455 C 203.848 74.455,202.953 74.709,202.224 75.282 M300.981 75.357 C 283.688 81.253,282.030 104.860,298.346 112.867 C 314.627 120.856,332.582 105.061,326.574 88.033 C 322.907 77.640,311.237 71.860,300.981 75.357 M312.079 85.724 C 318.148 88.775,319.354 96.796,314.496 101.805 C 309.300 107.163,300.092 105.085,297.682 98.011 C 294.711 89.291,303.780 81.551,312.079 85.724 M101.489 94.921 C 100.233 95.180,98.329 97.206,98.020 98.613 C 96.749 104.398,104.959 107.331,107.491 101.996 C 109.379 98.016,105.970 93.998,101.489 94.921 M121.295 95.241 C 118.668 96.383,117.653 99.931,119.218 102.499 C 121.762 106.672,128.317 104.796,128.317 99.895 C 128.317 96.027,124.819 93.709,121.295 95.241 M142.376 94.924 C 140.026 95.525,138.233 98.833,138.998 101.153 C 140.351 105.253,145.651 106.113,148.005 102.615 C 150.624 98.724,146.981 93.747,142.376 94.924 M162.390 95.158 C 160.641 95.777,159.208 97.868,159.208 99.802 C 159.208 104.071,164.728 106.451,167.711 103.468 C 171.667 99.512,167.681 93.286,162.390 95.158 M182.739 95.216 C 180.780 96.069,179.802 97.628,179.802 99.895 C 179.802 104.796,186.356 106.672,188.901 102.499 C 191.485 98.260,187.249 93.253,182.739 95.216 M203.779 94.930 C 200.650 95.773,199.174 99.264,200.724 102.154 C 202.660 105.765,207.924 105.672,209.669 101.996 C 211.528 98.079,207.963 93.803,203.779 94.930 M223.473 95.241 C 220.846 96.383,219.831 99.931,221.396 102.499 C 223.941 106.672,230.495 104.796,230.495 99.895 C 230.495 96.027,226.997 93.709,223.473 95.241 M130.995 115.867 C 128.264 117.350,127.805 121.442,130.112 123.749 C 133.250 126.887,138.604 124.689,138.611 120.259 C 138.618 116.374,134.470 113.982,130.995 115.867 M202.494 116.024 C 198.129 118.686,200.008 125.149,205.149 125.149 C 207.251 125.149,208.740 124.239,209.711 122.361 C 211.966 118.001,206.756 113.425,202.494 116.024 M126.846 135.885 C 123.509 136.849,122.446 141.366,124.920 144.065 C 129.162 148.694,136.280 142.577,132.468 137.579 C 131.640 136.493,129.307 135.316,128.317 135.483 C 128.208 135.502,127.546 135.683,126.846 135.885 M203.748 135.877 C 200.570 136.775,199.062 140.699,200.869 143.366 C 203.787 147.674,210.738 145.364,210.180 140.272 C 209.832 137.100,206.785 135.018,203.748 135.877 M120.937 156.799 C 119.170 157.877,118.416 159.139,118.416 161.020 C 118.416 165.774,124.250 167.941,127.298 164.319 C 130.842 160.106,125.626 153.940,120.937 156.799 M202.879 156.627 C 198.763 158.416,199.412 164.689,203.839 165.911 C 206.781 166.723,209.853 164.589,210.166 161.515 C 210.564 157.603,206.660 154.983,202.879 156.627 M115.719 177.169 C 111.512 179.504,113.219 186.535,117.993 186.535 C 123.204 186.535,125.414 180.435,121.271 177.485 C 119.905 176.512,117.182 176.358,115.719 177.169 M202.224 177.461 C 199.172 179.862,199.435 184.215,202.735 185.921 C 207.062 188.159,211.899 183.652,209.711 179.421 C 208.740 177.543,207.251 176.634,205.149 176.634 C 203.848 176.634,202.953 176.887,202.224 177.461 M60.212 197.336 C 58.462 197.955,57.030 200.046,57.030 201.980 C 57.030 206.249,62.550 208.629,65.533 205.646 C 69.489 201.690,65.503 195.465,60.212 197.336 M80.560 197.395 C 78.602 198.247,77.624 199.806,77.624 202.073 C 77.624 206.975,84.178 208.850,86.723 204.677 C 89.307 200.438,85.071 195.431,80.560 197.395 M101.489 197.099 C 100.233 197.358,98.329 199.384,98.020 200.791 C 96.749 206.576,104.959 209.509,107.491 204.174 C 109.379 200.194,105.970 196.176,101.489 197.099 M121.295 197.419 C 118.668 198.561,117.653 202.109,119.218 204.677 C 121.762 208.850,128.317 206.975,128.317 202.073 C 128.317 198.206,124.819 195.887,121.295 197.419 M142.376 197.102 C 140.026 197.703,138.233 201.011,138.998 203.332 C 140.351 207.431,145.651 208.291,148.005 204.793 C 150.624 200.902,146.981 195.925,142.376 197.102 M162.390 197.336 C 160.641 197.955,159.208 200.046,159.208 201.980 C 159.208 206.249,164.728 208.629,167.711 205.646 C 171.667 201.690,167.681 195.465,162.390 197.336 M182.739 197.395 C 180.780 198.247,179.802 199.806,179.802 202.073 C 179.802 206.975,186.356 208.850,188.901 204.677 C 191.485 200.438,187.249 195.431,182.739 197.395 M203.667 197.099 C 202.411 197.358,200.507 199.384,200.198 200.791 C 198.928 206.576,207.137 209.509,209.669 204.174 C 211.557 200.194,208.148 196.176,203.667 197.099 M223.473 197.419 C 220.846 198.561,219.831 202.109,221.396 204.677 C 223.941 208.850,230.495 206.975,230.495 202.073 C 230.495 198.206,226.997 195.887,223.473 197.419 M244.554 197.102 C 242.205 197.703,240.411 201.011,241.177 203.332 C 242.530 207.431,247.830 208.291,250.184 204.793 C 252.802 200.902,249.159 195.925,244.554 197.102 M264.568 197.336 C 262.819 197.955,261.386 200.046,261.386 201.980 C 261.386 206.249,266.906 208.629,269.889 205.646 C 273.846 201.690,269.859 195.465,264.568 197.336 M284.917 197.395 C 282.959 198.247,281.980 199.806,281.980 202.073 C 281.980 206.975,288.535 208.850,291.079 204.677 C 293.664 200.438,289.427 195.431,284.917 197.395 M325.651 197.419 C 323.024 198.561,322.009 202.109,323.575 204.677 C 326.119 208.850,332.673 206.975,332.673 202.073 C 332.673 198.206,329.175 195.887,325.651 197.419 M346.733 197.102 C 344.383 197.703,342.589 201.011,343.355 203.332 C 344.708 207.431,350.008 208.291,352.362 204.793 C 354.980 200.902,351.337 195.925,346.733 197.102 M114.805 218.963 C 112.990 220.778,112.702 223.094,114.038 225.122 C 116.248 228.475,121.485 227.971,123.038 224.257 C 125.139 219.227,118.688 215.080,114.805 218.963 M202.494 218.202 C 198.129 220.864,200.008 227.327,205.149 227.327 C 207.251 227.327,208.740 226.417,209.711 224.539 C 211.966 220.179,206.756 215.604,202.494 218.202 M289.463 218.019 C 284.965 220.463,286.803 227.355,291.942 227.313 C 295.070 227.287,297.022 225.336,297.027 222.231 C 297.033 218.625,292.742 216.236,289.463 218.019 M121.598 238.137 C 118.738 239.131,117.416 243.374,119.243 245.697 C 122.416 249.730,128.457 247.750,128.387 242.700 C 128.339 239.216,124.983 236.960,121.598 238.137 M203.748 238.055 C 200.570 238.953,199.062 242.877,200.869 245.545 C 203.787 249.852,210.738 247.542,210.180 242.451 C 209.832 239.278,206.785 237.196,203.748 238.055 M285.325 238.043 C 281.795 239.080,280.725 243.785,283.407 246.467 C 286.378 249.439,291.883 247.257,291.880 243.109 C 291.877 239.379,288.819 237.016,285.325 238.043 M126.502 258.580 C 122.359 260.363,122.739 266.937,127.053 268.098 C 132.039 269.441,135.624 263.730,132.165 259.955 C 130.775 258.438,128.255 257.826,126.502 258.580 M202.879 258.805 C 198.763 260.594,199.412 266.867,203.839 268.089 C 206.781 268.902,209.853 266.767,210.166 263.693 C 210.564 259.781,206.660 257.161,202.879 258.805 M279.770 258.580 C 275.627 260.363,276.007 266.937,280.320 268.098 C 285.306 269.441,288.891 263.730,285.432 259.955 C 284.042 258.438,281.522 257.826,279.770 258.580 M130.112 280.211 C 127.771 282.552,128.273 286.663,131.076 288.112 C 134.601 289.935,138.618 287.583,138.611 283.701 C 138.604 279.272,133.250 277.073,130.112 280.211 M202.224 279.639 C 199.172 282.040,199.435 286.393,202.735 288.100 C 207.062 290.337,211.899 285.830,209.711 281.599 C 208.740 279.721,207.251 278.812,205.149 278.812 C 203.848 278.812,202.953 279.065,202.224 279.639 M274.135 279.348 C 271.890 280.593,270.994 284.058,272.331 286.321 C 274.670 290.280,281.094 289.054,281.588 284.554 C 282.063 280.236,277.844 277.289,274.135 279.348 M101.489 299.277 C 100.233 299.536,98.329 301.562,98.020 302.969 C 96.749 308.754,104.959 311.688,107.491 306.353 C 109.379 302.373,105.970 298.354,101.489 299.277 M121.295 299.597 C 118.668 300.739,117.653 304.288,119.218 306.856 C 121.762 311.029,128.317 309.153,128.317 304.251 C 128.317 300.384,124.819 298.065,121.295 299.597 M142.376 299.280 C 140.043 299.877,138.233 303.189,138.988 305.479 C 140.330 309.546,145.680 310.431,148.006 306.971 C 150.623 303.079,146.980 298.103,142.376 299.280 M162.390 299.515 C 160.641 300.133,159.208 302.224,159.208 304.158 C 159.208 308.427,164.728 310.807,167.711 307.825 C 171.667 303.868,167.681 297.643,162.390 299.515 M182.739 299.573 C 180.780 300.426,179.802 301.984,179.802 304.251 C 179.802 309.153,186.356 311.029,188.901 306.856 C 191.485 302.616,187.249 297.609,182.739 299.573 M203.779 299.287 C 200.650 300.130,199.174 303.620,200.724 306.510 C 202.660 310.121,207.924 310.029,209.669 306.353 C 211.528 302.435,207.963 298.159,203.779 299.287 M223.473 299.597 C 220.846 300.739,219.831 304.288,221.396 306.856 C 223.941 311.029,230.495 309.153,230.495 304.251 C 230.495 300.384,226.997 298.065,223.473 299.597 M244.486 299.274 C 242.217 299.746,240.403 303.166,241.177 305.510 C 242.530 309.609,247.830 310.469,250.184 306.971 C 252.830 303.038,249.301 298.270,244.486 299.274 M264.568 299.515 C 262.819 300.133,261.386 302.224,261.386 304.158 C 261.386 308.420,266.715 310.744,269.793 307.824 C 273.845 303.981,269.860 297.643,264.568 299.515 M284.917 299.573 C 282.959 300.426,281.980 301.984,281.980 304.251 C 281.980 309.153,288.535 311.029,291.079 306.856 C 293.664 302.616,289.427 297.609,284.917 299.573 M305.845 299.277 C 304.589 299.536,302.685 301.562,302.377 302.969 C 301.106 308.754,309.315 311.688,311.847 306.353 C 313.736 302.373,310.327 298.354,305.845 299.277 M151.405 320.380 C 147.040 323.042,148.919 329.505,154.059 329.505 C 156.162 329.505,157.651 328.595,158.622 326.717 C 160.876 322.357,155.666 317.782,151.405 320.380 M202.494 320.380 C 198.129 323.042,200.008 329.505,205.149 329.505 C 207.251 329.505,208.740 328.595,209.711 326.717 C 211.966 322.357,206.756 317.782,202.494 320.380 M253.584 320.380 C 249.218 323.042,251.098 329.505,256.238 329.505 C 258.340 329.505,259.829 328.595,260.800 326.717 C 263.055 322.357,257.845 317.782,253.584 320.380 M167.675 335.295 C 166.830 335.589,166.109 335.832,166.072 335.836 C 165.549 335.882,164.356 338.882,164.356 340.152 C 164.356 345.329,171.807 346.717,173.923 341.934 C 175.784 337.727,172.059 333.769,167.675 335.295 M239.677 335.072 C 233.409 336.428,235.392 345.673,241.768 344.818 C 246.354 344.203,247.497 337.110,243.264 335.529 C 241.384 334.827,241.023 334.781,239.677 335.072 M203.748 340.233 C 200.570 341.131,199.062 345.055,200.869 347.723 C 203.787 352.030,210.738 349.721,210.180 344.629 C 209.832 341.456,206.785 339.374,203.748 340.233 " stroke="none" fill="#000000" fill-rule="evenodd"></path></g></svg>